<svg xmlns="http://www.w3.org/2000/svg" version="1.1" xmlns:xlink="http://www.w3.org/1999/xlink" xmlns:svgjs="http://svgjs.dev/svgjs" width="1000" height="623" viewBox="0 0 1000 623"><g transform="matrix(1,0,0,1,-0.6060606060606233,0.2522267206477409)"><svg viewBox="0 0 396 247" data-background-color="#ffffff" preserveAspectRatio="xMidYMid meet" height="623" width="1000" xmlns="http://www.w3.org/2000/svg" xmlns:xlink="http://www.w3.org/1999/xlink"><g id="tight-bounds" transform="matrix(1,0,0,1,0.2400000000000091,-0.09999999999999432)"><svg viewBox="0 0 395.52 247.2" height="247.2" width="395.52"><g><svg></svg></g><g><svg viewBox="0 0 395.52 247.2" height="247.2" width="395.52"><g transform="matrix(1,0,0,1,75.54432,103.25891774835343)"><svg viewBox="0 0 244.43135999999998 40.68216450329313" height="40.68216450329313" width="244.43135999999998"><g><svg viewBox="0 0 244.43135999999998 40.68216450329313" height="40.68216450329313" width="244.43135999999998"><g><svg viewBox="0 0 244.43135999999998 40.68216450329313" height="40.68216450329313" width="244.43135999999998"><g><svg viewBox="0 0 244.43135999999998 40.68216450329313" height="40.68216450329313" width="244.43135999999998"><g id="textblocktransform"><svg viewBox="0 0 244.43135999999998 40.68216450329313" height="40.68216450329313" width="244.43135999999998" id="textblock"><g><svg viewBox="0 0 244.43135999999998 40.68216450329313" height="40.68216450329313" width="244.43135999999998"><g transform="matrix(1,0,0,1,0,0)"><svg width="244.43135999999998" viewBox="3.25 -35.79999923706055 276.98956298828125 46.104347229003906" height="40.68216450329313" data-palette-color="#c53683"><path d="M8.25 7.55L8.25 7.55Q8.25 8.6 7.5 9.3 6.75 10 5.7 10 4.65 10 3.95 9.25 3.25 8.5 3.25 7.45L3.25 7.45Q3.45-2.4 3.45-24L3.45-24Q3.45-25.05 4.17-25.78 4.9-26.5 5.95-26.5L5.95-26.5Q6.7-26.5 7.33-25.83 7.95-25.15 8.25-24.15L8.25-24.15 8.95-24.6Q11.95-26.4 14.9-26.55 17.85-26.7 20.2-25.25L20.2-25.25Q22.4-24 23.93-21.75 25.45-19.5 26.15-16.85L26.15-16.85Q26.7-14.95 26.75-12.8 26.8-10.65 26.2-8.8 25.6-6.95 24.45-5.15 23.3-3.35 21.23-2 19.15-0.65 16.45-0.15L16.45-0.15Q11.8 0.7 8.4-1.75L8.4-1.75Q8.35 2.9 8.25 7.55L8.25 7.55ZM15.55-5.05L15.55-5.05Q19.35-5.75 20.88-8.68 22.4-11.6 21.35-15.55L21.35-15.55Q20.3-19.45 17.7-20.9L17.7-20.9Q15.05-22.45 11.55-20.3L11.55-20.3Q9.95-19.35 9.7-19.05L9.7-19.05Q9.55-18.9 9.45-18.78 9.35-18.65 9.1-18.2L9.1-18.2 8.45-17.3 8.45-9.1Q8.7-8.85 8.85-8.55L8.85-8.55Q10.25-6.35 11.8-5.5 13.35-4.65 15.55-5.05L15.55-5.05ZM50.7 0L50.7 0Q49.8-0.05 49.12-0.7 48.45-1.35 48.35-2.9L48.35-2.9Q46.05-0.9 43.6-0.3L43.6-0.3Q40.1 0.6 37.2-1.45L37.2-1.45Q34.4-3.45 32.8-8.05L32.8-8.05Q32.25-9.65 31.95-11.35L31.95-11.35Q31.65-13.1 31.67-15.08 31.7-17.05 31.75-18.28 31.8-19.5 32-21.63 32.2-23.75 32.25-24.3L32.25-24.3Q32.35-25.3 33.12-25.98 33.9-26.65 34.92-26.58 35.95-26.5 36.62-25.73 37.3-24.95 37.25-23.9L37.25-23.9Q37.2-23.15 36.97-21.05 36.75-18.95 36.72-17.93 36.7-16.9 36.67-15.23 36.65-13.55 36.87-12.23 37.1-10.9 37.5-9.65L37.5-9.65Q38.6-6.6 40.3-5.5L40.3-5.5Q41-5.05 42.6-5.05L42.6-5.05Q44.75-5.4 46.07-6.3 47.4-7.2 48.55-10.4L48.55-10.4Q48.65-17.05 48.4-23.9L48.4-23.9Q48.35-24.95 49.07-25.7 49.8-26.45 50.82-26.5 51.85-26.55 52.6-25.83 53.35-25.1 53.4-24.1L53.4-24.1Q53.8-12.3 53.35-2.35L53.35-2.35Q53.3-1.35 52.52-0.65 51.75 0.05 50.7 0L50.7 0ZM62.74 0L62.74 0Q61.74 0 60.99-0.68 60.24-1.35 60.24-2.5L60.24-2.5 60.14-12.7Q60.09-16.15 60.09-21.3L60.09-21.3 60.09-24.25Q60.09-25.4 60.8-26.05 61.49-26.7 62.49-26.7L62.49-26.7Q63.55-26.7 64.32-26.03 65.09-25.35 65.09-24.15L65.09-24.15 65.09-22.65Q65.64-23.85 67.14-24.7L67.14-24.7Q69.19-25.95 71.64-25.95L71.64-25.95Q73.5-25.95 74.5-25.35 75.5-24.75 75.5-23.2L75.5-23.2Q75.5-22.2 74.89-21.53 74.3-20.85 73.14-20.85L73.14-20.85Q68.94-20.85 67.34-19.7L67.34-19.7Q66.44-19.1 65.77-18.25 65.09-17.4 65.09-16.6L65.09-16.6 65.19-10.35 65.25-2.5Q65.25-1.35 64.5-0.68 63.74 0 62.74 0L62.74 0ZM83.14 7.55L83.14 7.55Q83.14 8.6 82.39 9.3 81.64 10 80.59 10 79.54 10 78.84 9.25 78.14 8.5 78.14 7.45L78.14 7.45Q78.34-2.4 78.34-24L78.34-24Q78.34-25.05 79.07-25.78 79.79-26.5 80.84-26.5L80.84-26.5Q81.59-26.5 82.22-25.83 82.84-25.15 83.14-24.15L83.14-24.15 83.84-24.6Q86.84-26.4 89.79-26.55 92.74-26.7 95.09-25.25L95.09-25.25Q97.29-24 98.82-21.75 100.34-19.5 101.04-16.85L101.04-16.85Q101.59-14.95 101.64-12.8 101.69-10.65 101.09-8.8 100.49-6.95 99.34-5.15 98.19-3.35 96.12-2 94.04-0.65 91.34-0.15L91.34-0.15Q86.69 0.7 83.29-1.75L83.29-1.75Q83.24 2.9 83.14 7.55L83.14 7.55ZM90.44-5.05L90.44-5.05Q94.24-5.75 95.77-8.68 97.29-11.6 96.24-15.55L96.24-15.55Q95.19-19.45 92.59-20.9L92.59-20.9Q89.94-22.45 86.44-20.3L86.44-20.3Q84.84-19.35 84.59-19.05L84.59-19.05Q84.44-18.9 84.34-18.78 84.24-18.65 83.99-18.2L83.99-18.2 83.34-17.3 83.34-9.1Q83.59-8.85 83.74-8.55L83.74-8.55Q85.14-6.35 86.69-5.5 88.24-4.65 90.44-5.05L90.44-5.05ZM111.89-2.4L111.89-2.4Q111.84-1.35 111.09-0.65 110.34 0.05 109.29 0 108.24-0.05 107.54-0.8 106.84-1.55 106.89-2.6L106.89-2.6Q107.09-9.25 107.09-12.7 107.09-16.15 106.99-23 106.89-29.85 106.89-33.3L106.89-33.3Q106.89-34.35 107.61-35.08 108.34-35.8 109.39-35.8 110.44-35.8 111.17-35.08 111.89-34.35 111.89-33.3L111.89-33.3Q111.89-29.85 111.99-23.5 112.09-17.15 112.06-11.98 112.04-6.8 111.89-2.4L111.89-2.4ZM130.29 0.25L130.29 0.25Q126.59 0 123.84-1.25 121.09-2.5 119.64-4.4 118.19-6.3 117.54-7.9 116.89-9.5 116.74-11.08 116.59-12.65 116.89-15.15L116.89-15.15Q117.24-17.25 118.36-19.3 119.49-21.35 121.36-22.98 123.24-24.6 125.89-25.48 128.54-26.35 131.54-26L131.54-26Q134.44-25.65 136.49-24.43 138.54-23.2 139.99-21.3L139.99-21.3Q141.24-19.7 141.51-18.9 141.79-18.1 142.01-17.4 142.24-16.7 142.39-16.2 142.54-15.7 142.66-15.18 142.79-14.65 142.84-13.95L142.84-13.95Q142.89-13 142.49-12.2 142.09-11.4 141.29-10.95L141.29-10.95Q140.64-10.7 139.89-10.7L139.89-10.7 131.34-10.55Q122.34-10.5 122.34-10.35L122.34-10.35 122.19-10.35Q122.84-7.8 124.91-6.35 126.99-4.9 130.59-4.65L130.59-4.65Q132.54-4.55 133.84-4.85L133.84-4.85Q135.29-5.25 135.94-5.58 136.59-5.9 137.54-6.45L137.54-6.45Q138.49-6.8 139.44-6.35 140.39-5.9 140.74-4.95 141.09-4 140.66-3.1 140.24-2.2 139.34-1.7L139.34-1.7Q138.54-1.25 137.69-0.93 136.84-0.6 135.19-0.15 133.54 0.3 130.29 0.25L130.29 0.25ZM122.29-15.25L122.29-15.25Q125.19-15.4 137.34-15.55L137.34-15.55Q136.89-17.05 135.89-18.4L135.89-18.4Q133.89-20.7 130.94-21.05L130.94-21.05Q127.84-21.45 125.49-19.73 123.14-18 122.29-15.25L122.29-15.25ZM158.94 10.25L158.94 10.25Q156.03 10.5 153.36 9.6 150.69 8.7 148.94 6.45L148.94 6.45Q148.28 5.6 147.86 4.35 147.44 3.1 147.94 2.18 148.44 1.25 149.41 0.95 150.39 0.65 151.31 1.15 152.24 1.65 152.53 2.6L152.53 2.6Q152.64 3 152.78 3.68 152.94 4.35 153.89 5L153.89 5Q156.14 5.8 158.84 5.7L158.84 5.7Q161.28 5.6 162.59 4.67 163.89 3.75 164.24 2.55L164.24 2.55Q164.74 0.85 165.04-2.85L165.04-2.85Q163.14-0.85 159.28-0.45L159.28-0.45Q155.99-0.3 153.36-1.38 150.74-2.45 149.21-4.45 147.69-6.45 146.99-8.9L146.99-8.9Q146.28-11.25 146.49-14.8L146.49-14.8Q146.89-20.3 150.78-23.65L150.78-23.65Q155.14-27.1 161.28-26.1L161.28-26.1Q163.54-25.35 164.84-24.3L164.84-24.3Q164.89-26.3 166.74-26.75L166.74-26.75Q167.94-26.85 168.66-26.2 169.39-25.55 169.54-24.55L169.54-24.55Q170.09-18.45 170.19-9.65L170.19-9.65Q170.24-4.65 169.89-1.3L169.89-1.3Q169.49 3.7 167.54 6.18 165.59 8.65 163.64 9.33 161.69 10 158.94 10.25L158.94 10.25ZM158.94-5.55L158.94-5.55Q160.78-5.5 161.78-6L161.78-6Q164.69-6.9 165.14-10.75L165.14-10.75Q165.39-13.7 164.89-16.4L164.89-16.4Q164.54-18.1 162.84-19.35L162.84-19.35Q161.84-20.15 160.28-20.4L160.28-20.4Q156.28-21.1 154.14-19.2L154.14-19.2Q152.09-17.55 151.78-14.35L151.78-14.35Q151.53-10.15 153.44-7.8L153.44-7.8Q155.39-5.5 158.94-5.55L158.94-5.55ZM188.88 0.25L188.88 0.25Q185.18 0 182.43-1.25 179.68-2.5 178.23-4.4 176.78-6.3 176.13-7.9 175.48-9.5 175.33-11.08 175.18-12.65 175.48-15.15L175.48-15.15Q175.83-17.25 176.96-19.3 178.08-21.35 179.96-22.98 181.83-24.6 184.48-25.48 187.13-26.35 190.13-26L190.13-26Q193.03-25.65 195.08-24.43 197.13-23.2 198.58-21.3L198.58-21.3Q199.83-19.7 200.11-18.9 200.38-18.1 200.61-17.4 200.83-16.7 200.98-16.2 201.13-15.7 201.26-15.18 201.38-14.65 201.43-13.95L201.43-13.95Q201.48-13 201.08-12.2 200.68-11.4 199.88-10.95L199.88-10.95Q199.23-10.7 198.48-10.7L198.48-10.7 189.93-10.55Q180.93-10.5 180.93-10.35L180.93-10.35 180.78-10.35Q181.43-7.8 183.51-6.35 185.58-4.9 189.18-4.65L189.18-4.65Q191.13-4.55 192.43-4.85L192.43-4.85Q193.88-5.25 194.53-5.58 195.18-5.9 196.13-6.45L196.13-6.45Q197.08-6.8 198.03-6.35 198.98-5.9 199.33-4.95 199.68-4 199.26-3.1 198.83-2.2 197.93-1.7L197.93-1.7Q197.13-1.25 196.28-0.93 195.43-0.6 193.78-0.15 192.13 0.3 188.88 0.25L188.88 0.25ZM180.88-15.25L180.88-15.25Q183.78-15.4 195.93-15.55L195.93-15.55Q195.48-17.05 194.48-18.4L194.48-18.4Q192.48-20.7 189.53-21.05L189.53-21.05Q186.43-21.45 184.08-19.73 181.73-18 180.88-15.25L180.88-15.25ZM218.53 0.25L218.53 0.25Q214.83 0 212.08-1.25 209.33-2.5 207.88-4.4 206.43-6.3 205.78-7.9 205.13-9.5 204.98-11.08 204.83-12.65 205.13-15.15L205.13-15.15Q205.48-17.25 206.61-19.3 207.73-21.35 209.61-22.98 211.48-24.6 214.13-25.48 216.78-26.35 219.78-26L219.78-26Q222.68-25.65 224.73-24.43 226.78-23.2 228.23-21.3L228.23-21.3Q229.48-19.7 229.75-18.9 230.03-18.1 230.25-17.4 230.48-16.7 230.63-16.2 230.78-15.7 230.91-15.18 231.03-14.65 231.08-13.95L231.08-13.95Q231.13-13 230.73-12.2 230.33-11.4 229.53-10.95L229.53-10.95Q228.88-10.7 228.13-10.7L228.13-10.7 219.58-10.55Q210.58-10.5 210.58-10.35L210.58-10.35 210.43-10.35Q211.08-7.8 213.16-6.35 215.23-4.9 218.83-4.65L218.83-4.65Q220.78-4.55 222.08-4.85L222.08-4.85Q223.53-5.25 224.18-5.58 224.83-5.9 225.78-6.45L225.78-6.45Q226.73-6.8 227.68-6.35 228.63-5.9 228.98-4.95 229.33-4 228.91-3.1 228.48-2.2 227.58-1.7L227.58-1.7Q226.78-1.25 225.93-0.93 225.08-0.6 223.43-0.15 221.78 0.3 218.53 0.25L218.53 0.25ZM210.53-15.25L210.53-15.25Q213.43-15.4 225.58-15.55L225.58-15.55Q225.13-17.05 224.13-18.4L224.13-18.4Q222.13-20.7 219.18-21.05L219.18-21.05Q216.08-21.45 213.73-19.73 211.38-18 210.53-15.25L210.53-15.25ZM252.93-0.8L252.93-0.8Q247.18-7.15 244.03-12.7L244.03-12.7 241.33-10.45Q241.23-10.35 241.13-10.3L241.13-10.3Q241.03-6.4 240.83-2.35L240.83-2.35Q240.78-1.3 240-0.6 239.23 0.1 238.2 0.05 237.18 0 236.48-0.78 235.78-1.55 235.83-2.55L235.83-2.55Q236.38-14.05 236.38-33.3L236.38-33.3Q236.38-34.35 237.1-35.08 237.83-35.8 238.88-35.8 239.93-35.8 240.65-35.08 241.38-34.35 241.38-33.3L241.38-33.3Q241.38-23.5 241.28-16.9L241.28-16.9Q248.58-23 251.38-25.7L251.38-25.7Q252.03-26.5 253.08-26.55 254.13-26.6 254.9-25.93 255.68-25.25 255.73-24.2 255.78-23.15 255.08-22.4L255.08-22.4Q252.58-19.95 247.93-15.95L247.93-15.95Q250.93-10.45 256.63-4.1L256.63-4.1Q257.33-3.35 257.28-2.33 257.23-1.3 256.45-0.6 255.68 0.1 254.65 0.05 253.63 0 252.93-0.8L252.93-0.8ZM265.68 0L265.68 0Q261.97-0.65 260.32-3L260.32-3Q259.52-4.05 259.18-5.8L259.18-5.8 258.97-6.9Q258.88-7.4 258.77-7.7L258.77-7.7Q258.47-8.65 258.97-9.55 259.47-10.45 260.47-10.7 261.47-10.95 262.38-10.5 263.27-10.05 263.57-9.05L263.57-9.05Q263.72-8.5 263.88-7.8L263.88-7.8Q263.93-7.55 263.95-7.33 263.97-7.1 264.13-6.55L264.13-6.55Q264.27-5.9 264.82-5.45L264.82-5.45Q265.43-4.9 266.63-4.75L266.63-4.75Q268.63-4.35 270.93-4.85L270.93-4.85Q273.18-5.35 274.43-6.3L274.43-6.3Q275.32-7.1 275.18-7.95L275.18-7.95Q275.02-9.35 273.43-10.05L273.43-10.05Q272.43-10.5 268.22-11.25L268.22-11.25Q263.88-12.1 262.07-13.45L262.07-13.45Q258.77-15.9 259.93-20.75L259.93-20.75Q260.63-23.55 262.8-24.88 264.97-26.2 267.63-26.35L267.63-26.35Q269.88-26.45 272.2-25.83 274.52-25.2 276.18-24.1L276.18-24.1Q276.72-23.7 277.32-23.15 277.93-22.6 278.5-21.95 279.07-21.3 279.18-21.25L279.18-21.25Q279.93-20.5 279.93-19.53 279.93-18.55 279.2-17.82 278.47-17.1 277.45-17.1 276.43-17.1 275.68-17.8L275.68-17.8Q275.18-18.25 274.68-18.75L274.68-18.75 273.97-19.6Q273.68-19.85 273.27-20.1L273.27-20.1Q272.32-20.7 270.82-21.13 269.32-21.55 267.88-21.5L267.88-21.5Q265.22-21.35 264.82-19.65L264.82-19.65Q264.38-17.85 265.13-17.3L265.13-17.3Q266.02-16.65 269.18-16L269.18-16Q273.82-15.2 275.52-14.45L275.52-14.45Q279.63-12.6 280.18-8.5L280.18-8.5Q280.63-5.15 277.68-2.7L277.68-2.7Q275.43-0.85 271.97-0.15L271.97-0.15Q268.68 0.6 265.68 0L265.68 0Z" opacity="1" transform="matrix(1,0,0,1,0,0)" fill="#c53683" class="undefined-text-0" data-fill-palette-color="primary" id="text-0"></path></svg></g></svg></g></svg></g></svg></g></svg></g></svg></g></svg></g><path d="M184.093 97.259L184.093 35.052 6.998 35.052 6.998 212.148 184.093 212.148 184.093 149.941 180.425 149.941 180.425 208.479 10.666 208.479 10.666 38.721 180.425 38.721 180.425 97.259Z" fill="#c53683" stroke="transparent" data-fill-palette-color="primary"></path></svg></g><defs></defs></svg><rect width="395.52" height="247.2" fill="none" stroke="none" visibility="hidden"></rect></g></svg></g></svg>